<svg xmlns="http://www.w3.org/2000/svg" xmlns:xlink="http://www.w3.org/1999/xlink" width="500" zoomAndPan="magnify" viewBox="0 0 375 374.999991" height="500" preserveAspectRatio="xMidYMid meet" version="1.0"><defs><g/></defs><rect x="-37.5" width="450" fill="#ffffff" y="-37.499999" height="449.999989" fill-opacity="1"/><rect x="-37.5" width="450" fill="#366560" y="-37.499999" height="449.999989" fill-opacity="1"/><g fill="#edb8b6" fill-opacity="1"><g transform="translate(87.722269, 293.499954)"><g><path d="M 193.5 -55.75 C 195.664062 -55.75 197.375 -54.75 198.625 -52.75 C 199.875 -50.75 200.5 -48 200.5 -44.5 C 200.5 -38 198.914062 -32.832031 195.75 -29 C 186.414062 -17.832031 177.375 -10 168.625 -5.5 C 159.875 -1 149.332031 1.25 137 1.25 C 128.332031 1.25 120.332031 0.164062 113 -2 C 105.664062 -4.164062 96.75 -7.414062 86.25 -11.75 C 76.75 -15.914062 67.582031 -19.332031 58.75 -22 C 50.25 -6.5 37.5 1.25 20.5 1.25 C 11.164062 1.25 3.707031 -0.875 -1.875 -5.125 C -7.457031 -9.375 -10.25 -14.832031 -10.25 -21.5 C -10.25 -29.664062 -6.332031 -36.457031 1.5 -41.875 C 9.332031 -47.289062 19.75 -50 32.75 -50 L 36 -50 L 40.5 -122.75 C 41.5 -139.414062 44.5 -153.164062 49.5 -164 C 54.5 -174.832031 61.414062 -184.082031 70.25 -191.75 C 77.914062 -198.414062 86.664062 -203.457031 96.5 -206.875 C 106.332031 -210.289062 116.75 -212 127.75 -212 C 145.75 -212 159.582031 -207.332031 169.25 -198 C 178.914062 -188.664062 183.75 -176.5 183.75 -161.5 C 183.75 -151.332031 181.914062 -143.125 178.25 -136.875 C 174.582031 -130.625 169.5 -127.5 163 -127.5 C 158.332031 -127.5 154.664062 -128.625 152 -130.875 C 149.332031 -133.125 148 -136.332031 148 -140.5 C 148 -142 148.332031 -144.75 149 -148.75 C 150 -153.414062 150.5 -157.582031 150.5 -161.25 C 150.5 -168.25 148.457031 -173.789062 144.375 -177.875 C 140.289062 -181.957031 134.082031 -184 125.75 -184 C 111.082031 -184 99.75 -179.207031 91.75 -169.625 C 83.75 -160.039062 78.664062 -145 76.5 -124.5 L 70.75 -67.75 C 69.914062 -59.75 68.832031 -52.832031 67.5 -47 C 78.164062 -45.164062 91.5 -42.25 107.5 -38.25 C 116.832031 -35.914062 124 -34.25 129 -33.25 C 134 -32.25 138.414062 -31.75 142.25 -31.75 C 151.914062 -31.75 160.207031 -33.375 167.125 -36.625 C 174.039062 -39.875 180.582031 -45.082031 186.75 -52.25 C 188.75 -54.582031 191 -55.75 193.5 -55.75 Z M 193.5 -55.75 "/></g></g></g></svg>